<?xml version="1.0" standalone="no"?>
<svg xmlns="http://www.w3.org/2000/svg" version="1.1" width="273" height="273">
	<!-- Created with https://api.qrserver.com (QR Code API, see goQR.me/api for information) -->
	<title>QR Code</title>
	<desc>https://app.poap.xyz/claim-websites/phantasmagoricmoloch</desc>
	<rect style="fill:rgb(0, 0, 0);fill-opacity:1" x="0" y="0" width="273" height="273" />
	<g id="elements">
		<path style="fill:rgb(212, 77, 110)" d="M 21,21 l 7,0 0,7 -7,0 z M 28,21 l 7,0 0,7 -7,0 z M 35,21 l 7,0 0,7 -7,0 z M 42,21 l 7,0 0,7 -7,0 z M 49,21 l 7,0 0,7 -7,0 z M 56,21 l 7,0 0,7 -7,0 z M 63,21 l 7,0 0,7 -7,0 z M 84,21 l 7,0 0,7 -7,0 z M 126,21 l 7,0 0,7 -7,0 z M 133,21 l 7,0 0,7 -7,0 z M 140,21 l 7,0 0,7 -7,0 z M 147,21 l 7,0 0,7 -7,0 z M 154,21 l 7,0 0,7 -7,0 z M 161,21 l 7,0 0,7 -7,0 z M 168,21 l 7,0 0,7 -7,0 z M 175,21 l 7,0 0,7 -7,0 z M 182,21 l 7,0 0,7 -7,0 z M 203,21 l 7,0 0,7 -7,0 z M 210,21 l 7,0 0,7 -7,0 z M 217,21 l 7,0 0,7 -7,0 z M 224,21 l 7,0 0,7 -7,0 z M 231,21 l 7,0 0,7 -7,0 z M 238,21 l 7,0 0,7 -7,0 z M 245,21 l 7,0 0,7 -7,0 z M 21,28 l 7,0 0,7 -7,0 z M 63,28 l 7,0 0,7 -7,0 z M 77,28 l 7,0 0,7 -7,0 z M 84,28 l 7,0 0,7 -7,0 z M 98,28 l 7,0 0,7 -7,0 z M 105,28 l 7,0 0,7 -7,0 z M 161,28 l 7,0 0,7 -7,0 z M 175,28 l 7,0 0,7 -7,0 z M 203,28 l 7,0 0,7 -7,0 z M 245,28 l 7,0 0,7 -7,0 z M 21,35 l 7,0 0,7 -7,0 z M 35,35 l 7,0 0,7 -7,0 z M 42,35 l 7,0 0,7 -7,0 z M 49,35 l 7,0 0,7 -7,0 z M 63,35 l 7,0 0,7 -7,0 z M 84,35 l 7,0 0,7 -7,0 z M 91,35 l 7,0 0,7 -7,0 z M 98,35 l 7,0 0,7 -7,0 z M 119,35 l 7,0 0,7 -7,0 z M 133,35 l 7,0 0,7 -7,0 z M 154,35 l 7,0 0,7 -7,0 z M 168,35 l 7,0 0,7 -7,0 z M 175,35 l 7,0 0,7 -7,0 z M 203,35 l 7,0 0,7 -7,0 z M 217,35 l 7,0 0,7 -7,0 z M 224,35 l 7,0 0,7 -7,0 z M 231,35 l 7,0 0,7 -7,0 z M 245,35 l 7,0 0,7 -7,0 z M 21,42 l 7,0 0,7 -7,0 z M 35,42 l 7,0 0,7 -7,0 z M 42,42 l 7,0 0,7 -7,0 z M 49,42 l 7,0 0,7 -7,0 z M 63,42 l 7,0 0,7 -7,0 z M 77,42 l 7,0 0,7 -7,0 z M 84,42 l 7,0 0,7 -7,0 z M 98,42 l 7,0 0,7 -7,0 z M 133,42 l 7,0 0,7 -7,0 z M 140,42 l 7,0 0,7 -7,0 z M 161,42 l 7,0 0,7 -7,0 z M 175,42 l 7,0 0,7 -7,0 z M 182,42 l 7,0 0,7 -7,0 z M 189,42 l 7,0 0,7 -7,0 z M 203,42 l 7,0 0,7 -7,0 z M 217,42 l 7,0 0,7 -7,0 z M 224,42 l 7,0 0,7 -7,0 z M 231,42 l 7,0 0,7 -7,0 z M 245,42 l 7,0 0,7 -7,0 z M 21,49 l 7,0 0,7 -7,0 z M 35,49 l 7,0 0,7 -7,0 z M 42,49 l 7,0 0,7 -7,0 z M 49,49 l 7,0 0,7 -7,0 z M 63,49 l 7,0 0,7 -7,0 z M 91,49 l 7,0 0,7 -7,0 z M 105,49 l 7,0 0,7 -7,0 z M 112,49 l 7,0 0,7 -7,0 z M 119,49 l 7,0 0,7 -7,0 z M 126,49 l 7,0 0,7 -7,0 z M 147,49 l 7,0 0,7 -7,0 z M 154,49 l 7,0 0,7 -7,0 z M 161,49 l 7,0 0,7 -7,0 z M 168,49 l 7,0 0,7 -7,0 z M 182,49 l 7,0 0,7 -7,0 z M 189,49 l 7,0 0,7 -7,0 z M 203,49 l 7,0 0,7 -7,0 z M 217,49 l 7,0 0,7 -7,0 z M 224,49 l 7,0 0,7 -7,0 z M 231,49 l 7,0 0,7 -7,0 z M 245,49 l 7,0 0,7 -7,0 z M 21,56 l 7,0 0,7 -7,0 z M 63,56 l 7,0 0,7 -7,0 z M 77,56 l 7,0 0,7 -7,0 z M 91,56 l 7,0 0,7 -7,0 z M 112,56 l 7,0 0,7 -7,0 z M 119,56 l 7,0 0,7 -7,0 z M 126,56 l 7,0 0,7 -7,0 z M 133,56 l 7,0 0,7 -7,0 z M 147,56 l 7,0 0,7 -7,0 z M 161,56 l 7,0 0,7 -7,0 z M 168,56 l 7,0 0,7 -7,0 z M 175,56 l 7,0 0,7 -7,0 z M 203,56 l 7,0 0,7 -7,0 z M 245,56 l 7,0 0,7 -7,0 z M 21,63 l 7,0 0,7 -7,0 z M 28,63 l 7,0 0,7 -7,0 z M 35,63 l 7,0 0,7 -7,0 z M 42,63 l 7,0 0,7 -7,0 z M 49,63 l 7,0 0,7 -7,0 z M 56,63 l 7,0 0,7 -7,0 z M 63,63 l 7,0 0,7 -7,0 z M 77,63 l 7,0 0,7 -7,0 z M 91,63 l 7,0 0,7 -7,0 z M 105,63 l 7,0 0,7 -7,0 z M 119,63 l 7,0 0,7 -7,0 z M 133,63 l 7,0 0,7 -7,0 z M 147,63 l 7,0 0,7 -7,0 z M 161,63 l 7,0 0,7 -7,0 z M 175,63 l 7,0 0,7 -7,0 z M 189,63 l 7,0 0,7 -7,0 z M 203,63 l 7,0 0,7 -7,0 z M 210,63 l 7,0 0,7 -7,0 z M 217,63 l 7,0 0,7 -7,0 z M 224,63 l 7,0 0,7 -7,0 z M 231,63 l 7,0 0,7 -7,0 z M 238,63 l 7,0 0,7 -7,0 z M 245,63 l 7,0 0,7 -7,0 z M 105,70 l 7,0 0,7 -7,0 z M 112,70 l 7,0 0,7 -7,0 z M 126,70 l 7,0 0,7 -7,0 z M 168,70 l 7,0 0,7 -7,0 z M 175,70 l 7,0 0,7 -7,0 z M 21,77 l 7,0 0,7 -7,0 z M 28,77 l 7,0 0,7 -7,0 z M 35,77 l 7,0 0,7 -7,0 z M 42,77 l 7,0 0,7 -7,0 z M 49,77 l 7,0 0,7 -7,0 z M 63,77 l 7,0 0,7 -7,0 z M 70,77 l 7,0 0,7 -7,0 z M 77,77 l 7,0 0,7 -7,0 z M 84,77 l 7,0 0,7 -7,0 z M 91,77 l 7,0 0,7 -7,0 z M 105,77 l 7,0 0,7 -7,0 z M 119,77 l 7,0 0,7 -7,0 z M 126,77 l 7,0 0,7 -7,0 z M 140,77 l 7,0 0,7 -7,0 z M 175,77 l 7,0 0,7 -7,0 z M 182,77 l 7,0 0,7 -7,0 z M 189,77 l 7,0 0,7 -7,0 z M 196,77 l 7,0 0,7 -7,0 z M 210,77 l 7,0 0,7 -7,0 z M 224,77 l 7,0 0,7 -7,0 z M 238,77 l 7,0 0,7 -7,0 z M 28,84 l 7,0 0,7 -7,0 z M 35,84 l 7,0 0,7 -7,0 z M 42,84 l 7,0 0,7 -7,0 z M 56,84 l 7,0 0,7 -7,0 z M 84,84 l 7,0 0,7 -7,0 z M 126,84 l 7,0 0,7 -7,0 z M 133,84 l 7,0 0,7 -7,0 z M 147,84 l 7,0 0,7 -7,0 z M 154,84 l 7,0 0,7 -7,0 z M 161,84 l 7,0 0,7 -7,0 z M 168,84 l 7,0 0,7 -7,0 z M 182,84 l 7,0 0,7 -7,0 z M 196,84 l 7,0 0,7 -7,0 z M 203,84 l 7,0 0,7 -7,0 z M 231,84 l 7,0 0,7 -7,0 z M 238,84 l 7,0 0,7 -7,0 z M 245,84 l 7,0 0,7 -7,0 z M 21,91 l 7,0 0,7 -7,0 z M 49,91 l 7,0 0,7 -7,0 z M 56,91 l 7,0 0,7 -7,0 z M 63,91 l 7,0 0,7 -7,0 z M 77,91 l 7,0 0,7 -7,0 z M 84,91 l 7,0 0,7 -7,0 z M 98,91 l 7,0 0,7 -7,0 z M 105,91 l 7,0 0,7 -7,0 z M 140,91 l 7,0 0,7 -7,0 z M 224,91 l 7,0 0,7 -7,0 z M 238,91 l 7,0 0,7 -7,0 z M 42,98 l 7,0 0,7 -7,0 z M 56,98 l 7,0 0,7 -7,0 z M 77,98 l 7,0 0,7 -7,0 z M 84,98 l 7,0 0,7 -7,0 z M 91,98 l 7,0 0,7 -7,0 z M 98,98 l 7,0 0,7 -7,0 z M 119,98 l 7,0 0,7 -7,0 z M 133,98 l 7,0 0,7 -7,0 z M 161,98 l 7,0 0,7 -7,0 z M 168,98 l 7,0 0,7 -7,0 z M 189,98 l 7,0 0,7 -7,0 z M 210,98 l 7,0 0,7 -7,0 z M 231,98 l 7,0 0,7 -7,0 z M 21,105 l 7,0 0,7 -7,0 z M 49,105 l 7,0 0,7 -7,0 z M 56,105 l 7,0 0,7 -7,0 z M 63,105 l 7,0 0,7 -7,0 z M 70,105 l 7,0 0,7 -7,0 z M 77,105 l 7,0 0,7 -7,0 z M 84,105 l 7,0 0,7 -7,0 z M 98,105 l 7,0 0,7 -7,0 z M 140,105 l 7,0 0,7 -7,0 z M 161,105 l 7,0 0,7 -7,0 z M 175,105 l 7,0 0,7 -7,0 z M 182,105 l 7,0 0,7 -7,0 z M 189,105 l 7,0 0,7 -7,0 z M 210,105 l 7,0 0,7 -7,0 z M 217,105 l 7,0 0,7 -7,0 z M 224,105 l 7,0 0,7 -7,0 z M 21,112 l 7,0 0,7 -7,0 z M 28,112 l 7,0 0,7 -7,0 z M 35,112 l 7,0 0,7 -7,0 z M 56,112 l 7,0 0,7 -7,0 z M 70,112 l 7,0 0,7 -7,0 z M 84,112 l 7,0 0,7 -7,0 z M 91,112 l 7,0 0,7 -7,0 z M 105,112 l 7,0 0,7 -7,0 z M 112,112 l 7,0 0,7 -7,0 z M 119,112 l 7,0 0,7 -7,0 z M 126,112 l 7,0 0,7 -7,0 z M 140,112 l 7,0 0,7 -7,0 z M 147,112 l 7,0 0,7 -7,0 z M 154,112 l 7,0 0,7 -7,0 z M 161,112 l 7,0 0,7 -7,0 z M 168,112 l 7,0 0,7 -7,0 z M 175,112 l 7,0 0,7 -7,0 z M 182,112 l 7,0 0,7 -7,0 z M 203,112 l 7,0 0,7 -7,0 z M 238,112 l 7,0 0,7 -7,0 z M 245,112 l 7,0 0,7 -7,0 z M 28,119 l 7,0 0,7 -7,0 z M 35,119 l 7,0 0,7 -7,0 z M 49,119 l 7,0 0,7 -7,0 z M 63,119 l 7,0 0,7 -7,0 z M 84,119 l 7,0 0,7 -7,0 z M 91,119 l 7,0 0,7 -7,0 z M 112,119 l 7,0 0,7 -7,0 z M 119,119 l 7,0 0,7 -7,0 z M 126,119 l 7,0 0,7 -7,0 z M 140,119 l 7,0 0,7 -7,0 z M 196,119 l 7,0 0,7 -7,0 z M 203,119 l 7,0 0,7 -7,0 z M 217,119 l 7,0 0,7 -7,0 z M 238,119 l 7,0 0,7 -7,0 z M 21,126 l 7,0 0,7 -7,0 z M 35,126 l 7,0 0,7 -7,0 z M 42,126 l 7,0 0,7 -7,0 z M 49,126 l 7,0 0,7 -7,0 z M 56,126 l 7,0 0,7 -7,0 z M 84,126 l 7,0 0,7 -7,0 z M 91,126 l 7,0 0,7 -7,0 z M 105,126 l 7,0 0,7 -7,0 z M 112,126 l 7,0 0,7 -7,0 z M 126,126 l 7,0 0,7 -7,0 z M 154,126 l 7,0 0,7 -7,0 z M 161,126 l 7,0 0,7 -7,0 z M 168,126 l 7,0 0,7 -7,0 z M 175,126 l 7,0 0,7 -7,0 z M 189,126 l 7,0 0,7 -7,0 z M 203,126 l 7,0 0,7 -7,0 z M 217,126 l 7,0 0,7 -7,0 z M 231,126 l 7,0 0,7 -7,0 z M 21,133 l 7,0 0,7 -7,0 z M 28,133 l 7,0 0,7 -7,0 z M 42,133 l 7,0 0,7 -7,0 z M 49,133 l 7,0 0,7 -7,0 z M 63,133 l 7,0 0,7 -7,0 z M 70,133 l 7,0 0,7 -7,0 z M 105,133 l 7,0 0,7 -7,0 z M 119,133 l 7,0 0,7 -7,0 z M 140,133 l 7,0 0,7 -7,0 z M 154,133 l 7,0 0,7 -7,0 z M 175,133 l 7,0 0,7 -7,0 z M 189,133 l 7,0 0,7 -7,0 z M 196,133 l 7,0 0,7 -7,0 z M 210,133 l 7,0 0,7 -7,0 z M 217,133 l 7,0 0,7 -7,0 z M 238,133 l 7,0 0,7 -7,0 z M 28,140 l 7,0 0,7 -7,0 z M 42,140 l 7,0 0,7 -7,0 z M 49,140 l 7,0 0,7 -7,0 z M 56,140 l 7,0 0,7 -7,0 z M 70,140 l 7,0 0,7 -7,0 z M 84,140 l 7,0 0,7 -7,0 z M 133,140 l 7,0 0,7 -7,0 z M 154,140 l 7,0 0,7 -7,0 z M 161,140 l 7,0 0,7 -7,0 z M 182,140 l 7,0 0,7 -7,0 z M 196,140 l 7,0 0,7 -7,0 z M 203,140 l 7,0 0,7 -7,0 z M 224,140 l 7,0 0,7 -7,0 z M 238,140 l 7,0 0,7 -7,0 z M 245,140 l 7,0 0,7 -7,0 z M 21,147 l 7,0 0,7 -7,0 z M 28,147 l 7,0 0,7 -7,0 z M 35,147 l 7,0 0,7 -7,0 z M 42,147 l 7,0 0,7 -7,0 z M 56,147 l 7,0 0,7 -7,0 z M 63,147 l 7,0 0,7 -7,0 z M 70,147 l 7,0 0,7 -7,0 z M 77,147 l 7,0 0,7 -7,0 z M 98,147 l 7,0 0,7 -7,0 z M 105,147 l 7,0 0,7 -7,0 z M 126,147 l 7,0 0,7 -7,0 z M 133,147 l 7,0 0,7 -7,0 z M 140,147 l 7,0 0,7 -7,0 z M 147,147 l 7,0 0,7 -7,0 z M 161,147 l 7,0 0,7 -7,0 z M 168,147 l 7,0 0,7 -7,0 z M 189,147 l 7,0 0,7 -7,0 z M 203,147 l 7,0 0,7 -7,0 z M 210,147 l 7,0 0,7 -7,0 z M 224,147 l 7,0 0,7 -7,0 z M 238,147 l 7,0 0,7 -7,0 z M 42,154 l 7,0 0,7 -7,0 z M 70,154 l 7,0 0,7 -7,0 z M 84,154 l 7,0 0,7 -7,0 z M 98,154 l 7,0 0,7 -7,0 z M 119,154 l 7,0 0,7 -7,0 z M 147,154 l 7,0 0,7 -7,0 z M 168,154 l 7,0 0,7 -7,0 z M 175,154 l 7,0 0,7 -7,0 z M 210,154 l 7,0 0,7 -7,0 z M 231,154 l 7,0 0,7 -7,0 z M 21,161 l 7,0 0,7 -7,0 z M 28,161 l 7,0 0,7 -7,0 z M 42,161 l 7,0 0,7 -7,0 z M 49,161 l 7,0 0,7 -7,0 z M 56,161 l 7,0 0,7 -7,0 z M 63,161 l 7,0 0,7 -7,0 z M 70,161 l 7,0 0,7 -7,0 z M 77,161 l 7,0 0,7 -7,0 z M 98,161 l 7,0 0,7 -7,0 z M 126,161 l 7,0 0,7 -7,0 z M 140,161 l 7,0 0,7 -7,0 z M 175,161 l 7,0 0,7 -7,0 z M 182,161 l 7,0 0,7 -7,0 z M 189,161 l 7,0 0,7 -7,0 z M 196,161 l 7,0 0,7 -7,0 z M 217,161 l 7,0 0,7 -7,0 z M 238,161 l 7,0 0,7 -7,0 z M 21,168 l 7,0 0,7 -7,0 z M 35,168 l 7,0 0,7 -7,0 z M 56,168 l 7,0 0,7 -7,0 z M 70,168 l 7,0 0,7 -7,0 z M 91,168 l 7,0 0,7 -7,0 z M 105,168 l 7,0 0,7 -7,0 z M 112,168 l 7,0 0,7 -7,0 z M 119,168 l 7,0 0,7 -7,0 z M 133,168 l 7,0 0,7 -7,0 z M 140,168 l 7,0 0,7 -7,0 z M 147,168 l 7,0 0,7 -7,0 z M 154,168 l 7,0 0,7 -7,0 z M 161,168 l 7,0 0,7 -7,0 z M 168,168 l 7,0 0,7 -7,0 z M 175,168 l 7,0 0,7 -7,0 z M 182,168 l 7,0 0,7 -7,0 z M 196,168 l 7,0 0,7 -7,0 z M 203,168 l 7,0 0,7 -7,0 z M 224,168 l 7,0 0,7 -7,0 z M 238,168 l 7,0 0,7 -7,0 z M 245,168 l 7,0 0,7 -7,0 z M 21,175 l 7,0 0,7 -7,0 z M 56,175 l 7,0 0,7 -7,0 z M 63,175 l 7,0 0,7 -7,0 z M 77,175 l 7,0 0,7 -7,0 z M 91,175 l 7,0 0,7 -7,0 z M 112,175 l 7,0 0,7 -7,0 z M 119,175 l 7,0 0,7 -7,0 z M 126,175 l 7,0 0,7 -7,0 z M 133,175 l 7,0 0,7 -7,0 z M 147,175 l 7,0 0,7 -7,0 z M 168,175 l 7,0 0,7 -7,0 z M 175,175 l 7,0 0,7 -7,0 z M 203,175 l 7,0 0,7 -7,0 z M 210,175 l 7,0 0,7 -7,0 z M 217,175 l 7,0 0,7 -7,0 z M 224,175 l 7,0 0,7 -7,0 z M 238,175 l 7,0 0,7 -7,0 z M 21,182 l 7,0 0,7 -7,0 z M 56,182 l 7,0 0,7 -7,0 z M 70,182 l 7,0 0,7 -7,0 z M 91,182 l 7,0 0,7 -7,0 z M 105,182 l 7,0 0,7 -7,0 z M 112,182 l 7,0 0,7 -7,0 z M 133,182 l 7,0 0,7 -7,0 z M 168,182 l 7,0 0,7 -7,0 z M 182,182 l 7,0 0,7 -7,0 z M 189,182 l 7,0 0,7 -7,0 z M 196,182 l 7,0 0,7 -7,0 z M 217,182 l 7,0 0,7 -7,0 z M 224,182 l 7,0 0,7 -7,0 z M 231,182 l 7,0 0,7 -7,0 z M 21,189 l 7,0 0,7 -7,0 z M 49,189 l 7,0 0,7 -7,0 z M 56,189 l 7,0 0,7 -7,0 z M 63,189 l 7,0 0,7 -7,0 z M 77,189 l 7,0 0,7 -7,0 z M 84,189 l 7,0 0,7 -7,0 z M 105,189 l 7,0 0,7 -7,0 z M 119,189 l 7,0 0,7 -7,0 z M 140,189 l 7,0 0,7 -7,0 z M 154,189 l 7,0 0,7 -7,0 z M 175,189 l 7,0 0,7 -7,0 z M 189,189 l 7,0 0,7 -7,0 z M 196,189 l 7,0 0,7 -7,0 z M 203,189 l 7,0 0,7 -7,0 z M 210,189 l 7,0 0,7 -7,0 z M 217,189 l 7,0 0,7 -7,0 z M 245,189 l 7,0 0,7 -7,0 z M 77,196 l 7,0 0,7 -7,0 z M 84,196 l 7,0 0,7 -7,0 z M 91,196 l 7,0 0,7 -7,0 z M 133,196 l 7,0 0,7 -7,0 z M 147,196 l 7,0 0,7 -7,0 z M 154,196 l 7,0 0,7 -7,0 z M 161,196 l 7,0 0,7 -7,0 z M 168,196 l 7,0 0,7 -7,0 z M 189,196 l 7,0 0,7 -7,0 z M 217,196 l 7,0 0,7 -7,0 z M 231,196 l 7,0 0,7 -7,0 z M 245,196 l 7,0 0,7 -7,0 z M 21,203 l 7,0 0,7 -7,0 z M 28,203 l 7,0 0,7 -7,0 z M 35,203 l 7,0 0,7 -7,0 z M 42,203 l 7,0 0,7 -7,0 z M 49,203 l 7,0 0,7 -7,0 z M 56,203 l 7,0 0,7 -7,0 z M 63,203 l 7,0 0,7 -7,0 z M 77,203 l 7,0 0,7 -7,0 z M 84,203 l 7,0 0,7 -7,0 z M 91,203 l 7,0 0,7 -7,0 z M 98,203 l 7,0 0,7 -7,0 z M 105,203 l 7,0 0,7 -7,0 z M 126,203 l 7,0 0,7 -7,0 z M 140,203 l 7,0 0,7 -7,0 z M 147,203 l 7,0 0,7 -7,0 z M 168,203 l 7,0 0,7 -7,0 z M 175,203 l 7,0 0,7 -7,0 z M 182,203 l 7,0 0,7 -7,0 z M 189,203 l 7,0 0,7 -7,0 z M 203,203 l 7,0 0,7 -7,0 z M 217,203 l 7,0 0,7 -7,0 z M 224,203 l 7,0 0,7 -7,0 z M 231,203 l 7,0 0,7 -7,0 z M 238,203 l 7,0 0,7 -7,0 z M 21,210 l 7,0 0,7 -7,0 z M 63,210 l 7,0 0,7 -7,0 z M 91,210 l 7,0 0,7 -7,0 z M 98,210 l 7,0 0,7 -7,0 z M 119,210 l 7,0 0,7 -7,0 z M 126,210 l 7,0 0,7 -7,0 z M 133,210 l 7,0 0,7 -7,0 z M 168,210 l 7,0 0,7 -7,0 z M 175,210 l 7,0 0,7 -7,0 z M 182,210 l 7,0 0,7 -7,0 z M 189,210 l 7,0 0,7 -7,0 z M 217,210 l 7,0 0,7 -7,0 z M 224,210 l 7,0 0,7 -7,0 z M 231,210 l 7,0 0,7 -7,0 z M 21,217 l 7,0 0,7 -7,0 z M 35,217 l 7,0 0,7 -7,0 z M 42,217 l 7,0 0,7 -7,0 z M 49,217 l 7,0 0,7 -7,0 z M 63,217 l 7,0 0,7 -7,0 z M 77,217 l 7,0 0,7 -7,0 z M 98,217 l 7,0 0,7 -7,0 z M 140,217 l 7,0 0,7 -7,0 z M 161,217 l 7,0 0,7 -7,0 z M 175,217 l 7,0 0,7 -7,0 z M 189,217 l 7,0 0,7 -7,0 z M 196,217 l 7,0 0,7 -7,0 z M 203,217 l 7,0 0,7 -7,0 z M 210,217 l 7,0 0,7 -7,0 z M 217,217 l 7,0 0,7 -7,0 z M 224,217 l 7,0 0,7 -7,0 z M 245,217 l 7,0 0,7 -7,0 z M 21,224 l 7,0 0,7 -7,0 z M 35,224 l 7,0 0,7 -7,0 z M 42,224 l 7,0 0,7 -7,0 z M 49,224 l 7,0 0,7 -7,0 z M 63,224 l 7,0 0,7 -7,0 z M 77,224 l 7,0 0,7 -7,0 z M 84,224 l 7,0 0,7 -7,0 z M 105,224 l 7,0 0,7 -7,0 z M 112,224 l 7,0 0,7 -7,0 z M 119,224 l 7,0 0,7 -7,0 z M 133,224 l 7,0 0,7 -7,0 z M 140,224 l 7,0 0,7 -7,0 z M 147,224 l 7,0 0,7 -7,0 z M 154,224 l 7,0 0,7 -7,0 z M 161,224 l 7,0 0,7 -7,0 z M 168,224 l 7,0 0,7 -7,0 z M 175,224 l 7,0 0,7 -7,0 z M 182,224 l 7,0 0,7 -7,0 z M 196,224 l 7,0 0,7 -7,0 z M 210,224 l 7,0 0,7 -7,0 z M 217,224 l 7,0 0,7 -7,0 z M 231,224 l 7,0 0,7 -7,0 z M 238,224 l 7,0 0,7 -7,0 z M 245,224 l 7,0 0,7 -7,0 z M 21,231 l 7,0 0,7 -7,0 z M 35,231 l 7,0 0,7 -7,0 z M 42,231 l 7,0 0,7 -7,0 z M 49,231 l 7,0 0,7 -7,0 z M 63,231 l 7,0 0,7 -7,0 z M 77,231 l 7,0 0,7 -7,0 z M 91,231 l 7,0 0,7 -7,0 z M 112,231 l 7,0 0,7 -7,0 z M 119,231 l 7,0 0,7 -7,0 z M 126,231 l 7,0 0,7 -7,0 z M 133,231 l 7,0 0,7 -7,0 z M 161,231 l 7,0 0,7 -7,0 z M 182,231 l 7,0 0,7 -7,0 z M 196,231 l 7,0 0,7 -7,0 z M 203,231 l 7,0 0,7 -7,0 z M 210,231 l 7,0 0,7 -7,0 z M 231,231 l 7,0 0,7 -7,0 z M 21,238 l 7,0 0,7 -7,0 z M 63,238 l 7,0 0,7 -7,0 z M 77,238 l 7,0 0,7 -7,0 z M 105,238 l 7,0 0,7 -7,0 z M 112,238 l 7,0 0,7 -7,0 z M 133,238 l 7,0 0,7 -7,0 z M 154,238 l 7,0 0,7 -7,0 z M 161,238 l 7,0 0,7 -7,0 z M 168,238 l 7,0 0,7 -7,0 z M 175,238 l 7,0 0,7 -7,0 z M 203,238 l 7,0 0,7 -7,0 z M 210,238 l 7,0 0,7 -7,0 z M 224,238 l 7,0 0,7 -7,0 z M 231,238 l 7,0 0,7 -7,0 z M 21,245 l 7,0 0,7 -7,0 z M 28,245 l 7,0 0,7 -7,0 z M 35,245 l 7,0 0,7 -7,0 z M 42,245 l 7,0 0,7 -7,0 z M 49,245 l 7,0 0,7 -7,0 z M 56,245 l 7,0 0,7 -7,0 z M 63,245 l 7,0 0,7 -7,0 z M 77,245 l 7,0 0,7 -7,0 z M 84,245 l 7,0 0,7 -7,0 z M 105,245 l 7,0 0,7 -7,0 z M 119,245 l 7,0 0,7 -7,0 z M 140,245 l 7,0 0,7 -7,0 z M 154,245 l 7,0 0,7 -7,0 z M 189,245 l 7,0 0,7 -7,0 z M 203,245 l 7,0 0,7 -7,0 z M 210,245 l 7,0 0,7 -7,0 z M 224,245 l 7,0 0,7 -7,0 z M 238,245 l 7,0 0,7 -7,0 z " />
	</g>
</svg>
